<?xml version="1.0" encoding="UTF-8"?>
<svg xmlns="http://www.w3.org/2000/svg" width="180" height="189" viewBox="0 0 180 189" fill="none">
  <g clip-path="url(#clip0_75_481)">
    <g clip-path="url(#clip1_75_481)">
      <path fill-rule="evenodd" clip-rule="evenodd" d="M64.2741 23.0044C71.6683 5.11107 96.6072 -17.6656 115.62 23.0044C135.802 66.1734 163.429 128.003 173.963 154.23C181.213 172.282 182.083 188.093 161.731 188.093C153.745 188.093 148.075 184.909 141.353 181.039C141.233 180.97 141.112 180.901 140.991 180.831C130.644 174.872 117.691 167.413 90.0571 167.413C63.4513 167.413 50.9477 174.327 40.4003 180.16C32.7068 184.414 26.0542 188.093 15.7286 188.093C-1.67346 188.093 -3.14836 170.326 4.40053 154.23L16.3842 127.965L16.4187 127.89L64.2741 23.0044ZM84.2687 61.6261C86.8805 56.3474 91.5306 54.8878 94.7051 61.6261C98.0874 68.8054 104.326 82.7562 106.446 88.0341C107.678 91.2186 106.446 97.3586 100.644 95.2985C97.9885 94.3555 96.8071 92.5537 95.6998 90.8647C94.3618 88.8242 93.1317 86.9481 89.5399 86.9481C85.6728 86.9481 84.0335 89.1362 82.426 91.282C81.0525 93.115 79.7022 94.9172 77.0057 95.2985C72.1888 95.979 71.0757 90.9928 72.3229 88.0341L84.2687 61.6261Z" fill="url(#paint0_linear_75_481)"></path>
      <path d="M140.991 180.83C130.644 174.872 117.691 167.413 90.0571 167.413C63.4513 167.413 50.9477 174.327 40.4003 180.16C32.7067 184.414 26.0541 188.092 15.7286 188.092C-1.67346 188.092 -3.14836 170.325 4.40053 154.23L16.4004 127.929C48.2178 111.507 105.759 160.542 140.991 180.83Z" fill="url(#paint1_linear_75_481)"></path>
    </g>
  </g>
  <defs>
    <linearGradient id="paint0_linear_75_481" x1="89.3652" y1="-47.0281" x2="89.3652" y2="262.219" gradientUnits="userSpaceOnUse">
      <stop offset="0.380208" stop-color="#271BEF"></stop>
      <stop offset="0.792994" stop-color="#00C2FF"></stop>
    </linearGradient>
    <linearGradient id="paint1_linear_75_481" x1="147.655" y1="168.964" x2="-5.15534" y2="156.038" gradientUnits="userSpaceOnUse">
      <stop stop-color="#271BEF"></stop>
      <stop offset="1" stop-color="#00C2FF"></stop>
    </linearGradient>
    <clipPath id="clip0_75_481">
      <rect width="179.029" height="188.094" fill="white"></rect>
    </clipPath>
    <clipPath id="clip1_75_481">
      <rect width="178.933" height="188.182" fill="white"></rect>
    </clipPath>
  </defs>
</svg>
